<svg id="Layer_1" data-name="Layer 1" xmlns="http://www.w3.org/2000/svg" width="500" height="500" viewBox="0 0 500 500"><defs><style>.cls-1{fill:#466a80;}</style></defs><path id="Icon_simple-facebook" data-name="Icon simple-facebook" class="cls-1" d="M470,251.25C470,129.6,371.35,31,249.69,31S29.43,129.65,29.44,251.31A220.27,220.27,0,0,0,215.31,468.85V314.93H159.37V251.25h55.94V202.7c0-55.21,32.88-85.7,83.2-85.7a339.43,339.43,0,0,1,49.31,4.3v54.21H320c-27.36,0-35.9,17-35.9,34.4v41.32h61.09l-9.76,63.7H284.14V468.85A220.33,220.33,0,0,0,470,251.25Z"/></svg>