<svg id="Layer_1" data-name="Layer 1" xmlns="http://www.w3.org/2000/svg" width="500" height="500" viewBox="0 0 500 500"><defs><style>.cls-1{fill:#466a80;}</style></defs><path id="Icon_simple-instagram" data-name="Icon simple-instagram" class="cls-1" d="M250.26,35c-58.34,0-65.62.27-88.52,1.28a158.55,158.55,0,0,0-52.14,10A105.13,105.13,0,0,0,71.55,71a104.81,104.81,0,0,0-24.77,38.05,157.77,157.77,0,0,0-10,52.14c-1.07,22.9-1.28,30.18-1.28,88.52s.27,65.63,1.28,88.54a158.53,158.53,0,0,0,10,52.13,109.76,109.76,0,0,0,62.82,62.82,158.53,158.53,0,0,0,52.14,10c22.91,1.08,30.19,1.29,88.53,1.29s65.63-.27,88.54-1.29a158.77,158.77,0,0,0,52.13-10,109.77,109.77,0,0,0,62.8-62.79,158.57,158.57,0,0,0,10-52.14c1.07-22.9,1.28-30.19,1.28-88.53s-.27-65.63-1.28-88.54a159.08,159.08,0,0,0-10-52.13,105.59,105.59,0,0,0-24.77-38,104.71,104.71,0,0,0-38-24.78,158,158,0,0,0-52.14-10C315.89,35.22,308.6,35,250.26,35Zm0,38.66c57.32,0,64.16.29,86.8,1.28a118.21,118.21,0,0,1,39.85,7.43,70.65,70.65,0,0,1,40.77,40.75A118.38,118.38,0,0,1,425.09,163c1,22.66,1.28,29.48,1.28,86.8s-.26,64.16-1.32,86.8a120.84,120.84,0,0,1-7.54,39.85,68.08,68.08,0,0,1-16.09,24.74,67.08,67.08,0,0,1-24.69,16,119.4,119.4,0,0,1-40.06,7.42c-22.8,1-29.52,1.28-87,1.28s-64.18-.27-87-1.33a121.87,121.87,0,0,1-40-7.53,66.62,66.62,0,0,1-24.66-16.13A65.36,65.36,0,0,1,82,376.18a121.8,121.8,0,0,1-7.51-40c-.81-22.55-1.09-29.51-1.09-86.69s.29-64.18,1.09-87a121.55,121.55,0,0,1,7.51-40A63.56,63.56,0,0,1,98.07,97.8a63.49,63.49,0,0,1,24.68-16.08,118.77,118.77,0,0,1,39.72-7.53c22.82-.81,29.53-1.08,87-1.08l.81.54Zm0,65.82A110.28,110.28,0,1,0,360.54,249.75h0A110.27,110.27,0,0,0,250.27,139.48Zm0,181.86a71.59,71.59,0,1,1,71.59-71.59,71.59,71.59,0,0,1-71.59,71.59ZM390.68,135.13a25.78,25.78,0,1,1-25.79-25.75h0A25.79,25.79,0,0,1,390.68,135.13Z"/></svg>