<svg id="Layer_1" data-name="Layer 1" xmlns="http://www.w3.org/2000/svg" width="500" height="500" viewBox="0 0 500 500"><defs><style>.cls-1{fill:#466a80;}</style></defs><path id="Icon_simple-linkedin" data-name="Icon simple-linkedin" class="cls-1" d="M382,373.23H326.52V292c0-19.36-.42-44.28-28.93-44.28-28.94,0-33.36,21.07-33.36,42.86v82.63H208.72v-167H262V229h.72c7.45-13.12,25.57-27,52.64-27,56.24,0,66.64,34.56,66.64,79.54v91.66ZM146,183.39c-17.87,0-32.22-13.5-32.22-30.11S128.18,123.2,146,123.2s32.23,13.48,32.23,30.08S163.82,183.39,146,183.39Zm27.83,189.84H118.19v-167h55.67ZM409.8,75H90.33C75,75,62.67,86.29,62.67,100.21V399.76C62.67,413.7,75,425,90.33,425H409.75c15.28,0,27.77-11.27,27.77-25.21V100.21C437.52,86.29,425,75,409.75,75Z"/></svg>